# MagicaVoxel @ Ephtracy

# group
o 

# material
mtllib Objects-1.mtl
usemtl palette

# normals
vn -1 0 0
vn 1 0 0
vn 0 0 1
vn 0 0 -1
vn 0 -1 0
vn 0 1 0

# texcoords
vt 0.177734 0.5
vt 0.767578 0.5
vt 0.857422 0.5
vt 0.861328 0.5
vt 0.869141 0.5
vt 0.958984 0.5
vt 0.966797 0.5
vt 0.990234 0.5
vt 0.994141 0.5

# verts
v -0.5 0.4 0
v -0.5 0.4 -0.1
v -0.5 0.7 0
v -0.5 0.7 -0.1
v -0.4 0.3 0.2
v -0.4 0.3 -0.3
v -0.4 0.4 0.2
v -0.4 0.4 0.1
v -0.4 0.4 0
v -0.4 0.4 -0.1
v -0.4 0.7 0.2
v -0.4 0.7 0.1
v -0.4 0.7 0
v -0.4 0.7 -0.1
v -0.4 0.8 0.2
v -0.4 0.8 -0.3
v -0.3 0.2 0.4
v -0.3 0.2 0.2
v -0.3 0.2 -0.3
v -0.3 0.3 0.4
v -0.3 0.3 0.2
v -0.3 0.3 -0.3
v -0.3 0.8 0.2
v -0.3 0.8 -0.3
v -0.3 1 0.2
v -0.3 1 -0.3
v -0.3 1.2 0.2
v -0.3 1.2 -0.3
v 0.1 0.2 0.4
v 0.1 0.2 0.2
v 0.1 0.3 0.4
v 0.1 0.3 0.2
v -0.2 0.2 0.4
v -0.2 0.2 0.2
v -0.2 0.3 0.4
v -0.2 0.3 0.2
v 0.2 0.2 0.4
v 0.2 0.2 0.2
v 0.2 0.2 -0.3
v 0.2 0.3 0.4
v 0.2 0.3 0.2
v 0.2 0.3 -0.3
v 0.2 0.8 0.2
v 0.2 0.8 -0.3
v 0.2 1 0.2
v 0.2 1 -0.3
v 0.2 1.2 0.2
v 0.2 1.2 -0.3
v 0.3 0.3 0.2
v 0.3 0.3 -0.3
v 0.3 0.4 0.2
v 0.3 0.4 0.1
v 0.3 0.4 0
v 0.3 0.4 -0.1
v 0.3 0.7 0.2
v 0.3 0.7 0.1
v 0.3 0.7 0
v 0.3 0.7 -0.1
v 0.3 0.8 0.2
v 0.3 0.8 -0.3
v 0.4 0.4 0
v 0.4 0.4 -0.1
v 0.4 0.7 0
v 0.4 0.7 -0.1
v -0.3 0.2 0.4
v -0.3 0.3 0.4
v -0.2 0.2 0.4
v -0.2 0.3 0.4
v 0.1 0.2 0.4
v 0.1 0.3 0.4
v 0.2 0.2 0.4
v 0.2 0.3 0.4
v -0.4 0.3 0.2
v -0.4 0.4 0.2
v -0.4 0.7 0.2
v -0.4 0.8 0.2
v -0.3 0.3 0.2
v -0.3 0.4 0.2
v -0.3 0.7 0.2
v -0.3 0.8 0.2
v -0.3 1 0.2
v -0.3 1.2 0.2
v -0.2 0.2 0.2
v -0.2 0.3 0.2
v -0.2 0.8 0.2
v -0.2 1 0.2
v -0.2 1.1 0.2
v -0.2 1.2 0.2
v -0.1 1 0.2
v -0.1 1.1 0.2
v 0 1 0.2
v 0 1.1 0.2
v 0.1 0.2 0.2
v 0.1 0.3 0.2
v 0.1 0.8 0.2
v 0.1 1 0.2
v 0.1 1.1 0.2
v 0.1 1.2 0.2
v 0.2 0.3 0.2
v 0.2 0.4 0.2
v 0.2 0.7 0.2
v 0.2 0.8 0.2
v 0.2 1 0.2
v 0.2 1.2 0.2
v 0.3 0.3 0.2
v 0.3 0.4 0.2
v 0.3 0.7 0.2
v 0.3 0.8 0.2
v -0.5 0.4 0
v -0.5 0.7 0
v -0.4 0.4 0
v -0.4 0.7 0
v 0.3 0.4 0
v 0.3 0.7 0
v 0.4 0.4 0
v 0.4 0.7 0
v -0.5 0.4 -0.1
v -0.5 0.7 -0.1
v -0.4 0.4 -0.1
v -0.4 0.7 -0.1
v 0.3 0.4 -0.1
v 0.3 0.7 -0.1
v 0.4 0.4 -0.1
v 0.4 0.7 -0.1
v -0.4 0.3 -0.3
v -0.4 0.8 -0.3
v -0.3 0.2 -0.3
v -0.3 0.3 -0.3
v -0.3 0.4 -0.3
v -0.3 0.5 -0.3
v -0.3 0.6 -0.3
v -0.3 0.7 -0.3
v -0.3 0.8 -0.3
v -0.3 1 -0.3
v -0.3 1.2 -0.3
v -0.2 0.4 -0.3
v -0.2 0.5 -0.3
v -0.2 0.6 -0.3
v -0.2 0.7 -0.3
v -0.2 1 -0.3
v -0.2 1.2 -0.3
v -0.1 1 -0.3
v -0.1 1.2 -0.3
v 0 1 -0.3
v 0 1.2 -0.3
v 0.1 0.4 -0.3
v 0.1 0.5 -0.3
v 0.1 0.6 -0.3
v 0.1 0.7 -0.3
v 0.1 1 -0.3
v 0.1 1.2 -0.3
v 0.2 0.2 -0.3
v 0.2 0.3 -0.3
v 0.2 0.4 -0.3
v 0.2 0.5 -0.3
v 0.2 0.6 -0.3
v 0.2 0.7 -0.3
v 0.2 0.8 -0.3
v 0.2 1 -0.3
v 0.2 1.2 -0.3
v 0.3 0.3 -0.3
v 0.3 0.8 -0.3
v -0.3 0.2 0.4
v -0.2 0.2 0.4
v 0.1 0.2 0.4
v 0.2 0.2 0.4
v -0.3 0.2 0.2
v -0.2 0.2 0.2
v 0.1 0.2 0.2
v 0.2 0.2 0.2
v -0.3 0.2 -0.3
v 0.2 0.2 -0.3
v -0.4 0.3 0.2
v -0.3 0.3 0.2
v 0.2 0.3 0.2
v 0.3 0.3 0.2
v -0.4 0.3 -0.3
v -0.3 0.3 -0.3
v 0.2 0.3 -0.3
v 0.3 0.3 -0.3
v -0.5 0.4 0
v -0.4 0.4 0
v 0.3 0.4 0
v 0.4 0.4 0
v -0.5 0.4 -0.1
v -0.4 0.4 -0.1
v 0.3 0.4 -0.1
v 0.4 0.4 -0.1
v -0.3 0.3 0.4
v -0.2 0.3 0.4
v 0.1 0.3 0.4
v 0.2 0.3 0.4
v -0.3 0.3 0.2
v -0.2 0.3 0.2
v 0.1 0.3 0.2
v 0.2 0.3 0.2
v -0.5 0.7 0
v -0.4 0.7 0
v 0.3 0.7 0
v 0.4 0.7 0
v -0.5 0.7 -0.1
v -0.4 0.7 -0.1
v 0.3 0.7 -0.1
v 0.4 0.7 -0.1
v -0.4 0.8 0.2
v -0.3 0.8 0.2
v 0.2 0.8 0.2
v 0.3 0.8 0.2
v -0.4 0.8 -0.3
v -0.3 0.8 -0.3
v 0.2 0.8 -0.3
v 0.3 0.8 -0.3
v -0.3 1.2 0.2
v -0.2 1.2 0.2
v 0.1 1.2 0.2
v 0.2 1.2 0.2
v -0.2 1.2 0.1
v -0.1 1.2 0.1
v 0 1.2 0.1
v 0.1 1.2 0.1
v -0.3 1.2 -0.3
v -0.2 1.2 -0.3
v -0.1 1.2 -0.3
v 0 1.2 -0.3
v 0.1 1.2 -0.3
v 0.2 1.2 -0.3

# faces
f 3/6/1 2/6/1 1/6/1
f 4/6/1 2/6/1 3/6/1
f 7/3/1 6/3/1 5/3/1
f 8/3/1 6/3/1 7/3/1
f 9/3/1 6/3/1 8/3/1
f 10/3/1 6/3/1 9/3/1
f 11/1/1 8/1/1 7/1/1
f 12/3/1 9/3/1 8/3/1
f 12/1/1 8/1/1 11/1/1
f 13/3/1 9/3/1 12/3/1
f 14/3/1 6/3/1 10/3/1
f 15/3/1 13/3/1 12/3/1
f 15/3/1 14/3/1 13/3/1
f 15/3/1 12/3/1 11/3/1
f 16/3/1 6/3/1 14/3/1
f 16/3/1 14/3/1 15/3/1
f 20/5/1 18/5/1 17/5/1
f 21/4/1 19/4/1 18/4/1
f 21/5/1 18/5/1 20/5/1
f 22/4/1 19/4/1 21/4/1
f 25/7/1 24/7/1 23/7/1
f 26/7/1 24/7/1 25/7/1
f 27/9/1 26/9/1 25/9/1
f 28/9/1 26/9/1 27/9/1
f 31/5/1 30/5/1 29/5/1
f 32/5/1 30/5/1 31/5/1
f 33/5/2 34/5/2 35/5/2
f 35/5/2 34/5/2 36/5/2
f 37/5/2 38/5/2 40/5/2
f 38/4/2 39/4/2 41/4/2
f 40/5/2 38/5/2 41/5/2
f 41/4/2 39/4/2 42/4/2
f 43/7/2 44/7/2 45/7/2
f 45/7/2 44/7/2 46/7/2
f 45/9/2 46/9/2 47/9/2
f 47/9/2 46/9/2 48/9/2
f 49/3/2 50/3/2 51/3/2
f 51/3/2 50/3/2 52/3/2
f 52/3/2 50/3/2 53/3/2
f 53/3/2 50/3/2 54/3/2
f 51/1/2 52/1/2 55/1/2
f 52/3/2 53/3/2 56/3/2
f 55/1/2 52/1/2 56/1/2
f 56/3/2 53/3/2 57/3/2
f 54/3/2 50/3/2 58/3/2
f 56/3/2 57/3/2 59/3/2
f 57/3/2 58/3/2 59/3/2
f 55/3/2 56/3/2 59/3/2
f 58/3/2 50/3/2 60/3/2
f 59/3/2 58/3/2 60/3/2
f 61/6/2 62/6/2 63/6/2
f 63/6/2 62/6/2 64/6/2
f 67/5/3 66/5/3 65/5/3
f 68/5/3 66/5/3 67/5/3
f 71/5/3 70/5/3 69/5/3
f 72/5/3 70/5/3 71/5/3
f 77/3/3 74/3/3 73/3/3
f 78/1/3 75/1/3 74/1/3
f 78/3/3 74/3/3 77/3/3
f 79/3/3 76/3/3 75/3/3
f 79/1/3 75/1/3 78/1/3
f 80/3/3 76/3/3 79/3/3
f 84/3/3 78/3/3 77/3/3
f 84/3/3 79/3/3 78/3/3
f 84/3/3 80/3/3 79/3/3
f 85/7/3 81/7/3 80/7/3
f 85/3/3 80/3/3 84/3/3
f 86/9/3 82/9/3 81/9/3
f 86/7/3 81/7/3 85/7/3
f 87/9/3 82/9/3 86/9/3
f 88/9/3 82/9/3 87/9/3
f 89/7/3 86/7/3 85/7/3
f 89/2/3 87/2/3 86/2/3
f 90/7/3 88/7/3 87/7/3
f 90/2/3 87/2/3 89/2/3
f 91/7/3 89/7/3 85/7/3
f 91/7/3 90/7/3 89/7/3
f 92/7/3 88/7/3 90/7/3
f 92/7/3 90/7/3 91/7/3
f 93/4/3 84/4/3 83/4/3
f 94/1/3 85/1/3 84/1/3
f 94/4/3 84/4/3 93/4/3
f 95/7/3 91/7/3 85/7/3
f 95/1/3 85/1/3 94/1/3
f 96/2/3 92/2/3 91/2/3
f 96/7/3 91/7/3 95/7/3
f 97/7/3 88/7/3 92/7/3
f 97/2/3 92/2/3 96/2/3
f 98/7/3 88/7/3 97/7/3
f 99/3/3 95/3/3 94/3/3
f 100/3/3 95/3/3 99/3/3
f 101/3/3 95/3/3 100/3/3
f 102/7/3 96/7/3 95/7/3
f 102/3/3 95/3/3 101/3/3
f 103/9/3 98/9/3 97/9/3
f 103/7/3 96/7/3 102/7/3
f 103/9/3 97/9/3 96/9/3
f 104/9/3 98/9/3 103/9/3
f 105/3/3 100/3/3 99/3/3
f 106/1/3 101/1/3 100/1/3
f 106/3/3 100/3/3 105/3/3
f 107/3/3 102/3/3 101/3/3
f 107/1/3 101/1/3 106/1/3
f 108/3/3 102/3/3 107/3/3
f 111/6/3 110/6/3 109/6/3
f 112/6/3 110/6/3 111/6/3
f 115/6/3 114/6/3 113/6/3
f 116/6/3 114/6/3 115/6/3
f 117/6/4 118/6/4 119/6/4
f 119/6/4 118/6/4 120/6/4
f 121/6/4 122/6/4 123/6/4
f 123/6/4 122/6/4 124/6/4
f 125/3/4 126/3/4 128/3/4
f 128/3/4 126/3/4 129/3/4
f 129/3/4 126/3/4 130/3/4
f 130/3/4 126/3/4 131/3/4
f 131/3/4 126/3/4 132/3/4
f 132/3/4 126/3/4 133/3/4
f 128/3/4 129/3/4 136/3/4
f 129/1/4 130/1/4 136/1/4
f 130/3/4 131/3/4 137/3/4
f 136/1/4 130/1/4 137/1/4
f 131/1/4 132/1/4 138/1/4
f 137/3/4 131/3/4 138/3/4
f 132/3/4 133/3/4 139/3/4
f 138/1/4 132/1/4 139/1/4
f 134/9/4 135/9/4 140/9/4
f 133/7/4 134/7/4 140/7/4
f 140/9/4 135/9/4 141/9/4
f 133/7/4 140/7/4 142/7/4
f 140/8/4 141/8/4 142/8/4
f 142/8/4 141/8/4 143/8/4
f 133/7/4 142/7/4 144/7/4
f 142/7/4 143/7/4 144/7/4
f 144/7/4 143/7/4 145/7/4
f 138/3/4 139/3/4 146/3/4
f 128/3/4 136/3/4 146/3/4
f 136/3/4 137/3/4 146/3/4
f 137/3/4 138/3/4 146/3/4
f 146/3/4 139/3/4 147/3/4
f 147/3/4 139/3/4 148/3/4
f 139/3/4 133/3/4 149/3/4
f 148/3/4 139/3/4 149/3/4
f 144/8/4 145/8/4 150/8/4
f 133/7/4 144/7/4 150/7/4
f 150/8/4 145/8/4 151/8/4
f 127/4/4 128/4/4 152/4/4
f 128/3/4 146/3/4 153/3/4
f 152/4/4 128/4/4 153/4/4
f 146/1/4 147/1/4 154/1/4
f 153/3/4 146/3/4 154/3/4
f 147/3/4 148/3/4 155/3/4
f 154/1/4 147/1/4 155/1/4
f 148/1/4 149/1/4 156/1/4
f 155/3/4 148/3/4 156/3/4
f 149/3/4 133/3/4 157/3/4
f 156/1/4 149/1/4 157/1/4
f 133/7/4 150/7/4 158/7/4
f 157/3/4 133/3/4 158/3/4
f 150/9/4 151/9/4 159/9/4
f 158/7/4 150/7/4 159/7/4
f 159/9/4 151/9/4 160/9/4
f 153/3/4 154/3/4 161/3/4
f 155/3/4 156/3/4 161/3/4
f 157/3/4 158/3/4 161/3/4
f 156/3/4 157/3/4 161/3/4
f 154/3/4 155/3/4 161/3/4
f 161/3/4 158/3/4 162/3/4
f 167/5/5 164/5/5 163/5/5
f 168/5/5 164/5/5 167/5/5
f 169/5/5 166/5/5 165/5/5
f 170/5/5 166/5/5 169/5/5
f 171/4/5 168/4/5 167/4/5
f 171/4/5 169/4/5 168/4/5
f 171/4/5 170/4/5 169/4/5
f 172/4/5 170/4/5 171/4/5
f 177/3/5 174/3/5 173/3/5
f 178/3/5 174/3/5 177/3/5
f 179/3/5 176/3/5 175/3/5
f 180/3/5 176/3/5 179/3/5
f 185/6/5 182/6/5 181/6/5
f 186/6/5 182/6/5 185/6/5
f 187/6/5 184/6/5 183/6/5
f 188/6/5 184/6/5 187/6/5
f 189/5/6 190/5/6 193/5/6
f 193/5/6 190/5/6 194/5/6
f 191/5/6 192/5/6 195/5/6
f 195/5/6 192/5/6 196/5/6
f 197/6/6 198/6/6 201/6/6
f 201/6/6 198/6/6 202/6/6
f 199/6/6 200/6/6 203/6/6
f 203/6/6 200/6/6 204/6/6
f 205/3/6 206/3/6 209/3/6
f 209/3/6 206/3/6 210/3/6
f 207/3/6 208/3/6 211/3/6
f 211/3/6 208/3/6 212/3/6
f 213/9/6 214/9/6 217/9/6
f 214/7/6 215/7/6 217/7/6
f 217/7/6 215/7/6 218/7/6
f 218/7/6 215/7/6 219/7/6
f 215/9/6 216/9/6 220/9/6
f 219/7/6 215/7/6 220/7/6
f 213/9/6 217/9/6 221/9/6
f 217/8/6 218/8/6 222/8/6
f 221/9/6 217/9/6 222/9/6
f 218/7/6 219/7/6 223/7/6
f 222/8/6 218/8/6 223/8/6
f 219/8/6 220/8/6 224/8/6
f 223/7/6 219/7/6 224/7/6
f 220/9/6 216/9/6 225/9/6
f 224/8/6 220/8/6 225/8/6
f 225/9/6 216/9/6 226/9/6
