# MagicaVoxel @ Ephtracy

# group
o 

# material
mtllib playerbutactuallyscale.mtl
usemtl palette

# normals
vn -1 0 0
vn 1 0 0
vn 0 0 1
vn 0 0 -1
vn 0 -1 0
vn 0 1 0

# texcoords
vt 0.677734 0.5
vt 0.701172 0.5
vt 0.919922 0.5
vt 0.958984 0.5
vt 0.970703 0.5
vt 0.994141 0.5

# verts
v -0.3 0.5 0
v -0.3 0.5 -0.1
v -0.3 0.7 -0.1
v -0.3 0.7 -0.2
v -0.3 0.8 0
v -0.3 0.8 -0.1
v -0.3 0.8 -0.2
v -0.3 0.9 0.2
v -0.3 0.9 -0.3
v -0.3 1.1 0.2
v -0.3 1.1 -0.3
v -0.3 1.4 0.2
v -0.3 1.4 -0.3
v -0.2 0.1 0
v -0.2 0.1 -0.1
v -0.2 0.4 0.1
v -0.2 0.4 0
v -0.2 0.4 -0.1
v -0.2 0.4 -0.2
v -0.2 0.5 0
v -0.2 0.5 -0.1
v -0.2 0.7 -0.1
v -0.2 0.7 -0.2
v -0.2 0.8 0
v -0.2 0.8 -0.1
v -0.2 0.8 -0.2
v -0.2 0.9 0.1
v -0.2 0.9 -0.2
v 0.1 0.1 0
v 0.1 0.1 -0.1
v 0.1 0.4 0
v 0.1 0.4 -0.1
v -0.1 0.1 0
v -0.1 0.1 -0.1
v -0.1 0.4 0
v -0.1 0.4 -0.1
v 0.2 0.1 0
v 0.2 0.1 -0.1
v 0.2 0.4 0.1
v 0.2 0.4 0
v 0.2 0.4 -0.1
v 0.2 0.4 -0.2
v 0.2 0.5 0
v 0.2 0.5 -0.1
v 0.2 0.8 0
v 0.2 0.8 -0.1
v 0.2 0.9 0.1
v 0.2 0.9 -0.2
v 0.3 0.5 0
v 0.3 0.5 -0.1
v 0.3 0.8 0
v 0.3 0.8 -0.1
v 0.3 0.9 0.2
v 0.3 0.9 -0.3
v 0.3 1.1 0.2
v 0.3 1.1 -0.3
v 0.3 1.4 0.2
v 0.3 1.4 -0.3
v -0.3 0.9 0.2
v -0.3 1.1 0.2
v -0.3 1.4 0.2
v -0.2 1.1 0.2
v -0.2 1.2 0.2
v -0.2 1.3 0.2
v -0.1 1.1 0.2
v -0.1 1.2 0.2
v 0.1 1.1 0.2
v 0.1 1.2 0.2
v 0.2 1.1 0.2
v 0.2 1.2 0.2
v 0.2 1.3 0.2
v 0.3 0.9 0.2
v 0.3 1.1 0.2
v 0.3 1.4 0.2
v -0.2 0.4 0.1
v -0.2 0.9 0.1
v -0.1 0.7 0.1
v -0.1 0.9 0.1
v 0.1 0.7 0.1
v 0.1 0.9 0.1
v 0.2 0.4 0.1
v 0.2 0.9 0.1
v -0.3 0.5 0
v -0.3 0.8 0
v -0.2 0.1 0
v -0.2 0.4 0
v -0.2 0.5 0
v -0.2 0.8 0
v -0.1 0.1 0
v -0.1 0.4 0
v 0.1 0.1 0
v 0.1 0.4 0
v 0.2 0.1 0
v 0.2 0.4 0
v 0.2 0.5 0
v 0.2 0.8 0
v 0.3 0.5 0
v 0.3 0.8 0
v -0.3 0.5 -0.1
v -0.3 0.7 -0.1
v -0.2 0.1 -0.1
v -0.2 0.4 -0.1
v -0.2 0.5 -0.1
v -0.2 0.7 -0.1
v -0.1 0.1 -0.1
v -0.1 0.4 -0.1
v 0.1 0.1 -0.1
v 0.1 0.4 -0.1
v 0.2 0.1 -0.1
v 0.2 0.4 -0.1
v 0.2 0.5 -0.1
v 0.2 0.8 -0.1
v 0.3 0.5 -0.1
v 0.3 0.8 -0.1
v -0.3 0.7 -0.2
v -0.3 0.8 -0.2
v -0.2 0.4 -0.2
v -0.2 0.7 -0.2
v -0.2 0.8 -0.2
v -0.2 0.9 -0.2
v 0.2 0.4 -0.2
v 0.2 0.9 -0.2
v -0.3 0.9 -0.3
v -0.3 1.1 -0.3
v -0.3 1.4 -0.3
v 0.3 0.9 -0.3
v 0.3 1.1 -0.3
v 0.3 1.4 -0.3
v -0.2 0.1 0
v -0.1 0.1 0
v 0.1 0.1 0
v 0.2 0.1 0
v -0.2 0.1 -0.1
v -0.1 0.1 -0.1
v 0.1 0.1 -0.1
v 0.2 0.1 -0.1
v -0.2 0.4 0.1
v 0.2 0.4 0.1
v -0.2 0.4 0
v -0.1 0.4 0
v 0.1 0.4 0
v 0.2 0.4 0
v -0.2 0.4 -0.1
v -0.1 0.4 -0.1
v 0.1 0.4 -0.1
v 0.2 0.4 -0.1
v -0.2 0.4 -0.2
v 0.2 0.4 -0.2
v -0.3 0.5 0
v -0.2 0.5 0
v 0.2 0.5 0
v 0.3 0.5 0
v -0.3 0.5 -0.1
v -0.2 0.5 -0.1
v 0.2 0.5 -0.1
v 0.3 0.5 -0.1
v -0.3 0.7 -0.1
v -0.2 0.7 -0.1
v -0.3 0.7 -0.2
v -0.2 0.7 -0.2
v -0.3 0.9 0.2
v 0.3 0.9 0.2
v -0.2 0.9 0.1
v -0.1 0.9 0.1
v 0.1 0.9 0.1
v 0.2 0.9 0.1
v -0.2 0.9 -0.2
v 0.2 0.9 -0.2
v -0.3 0.9 -0.3
v 0.3 0.9 -0.3
v -0.3 0.8 0
v -0.2 0.8 0
v 0.2 0.8 0
v 0.3 0.8 0
v -0.3 0.8 -0.1
v -0.2 0.8 -0.1
v 0.2 0.8 -0.1
v 0.3 0.8 -0.1
v -0.3 0.8 -0.2
v -0.2 0.8 -0.2
v -0.3 1.4 0.2
v 0.3 1.4 0.2
v -0.3 1.4 -0.3
v 0.3 1.4 -0.3

# faces
f 3/4/1 2/4/1 1/4/1
f 5/4/1 3/4/1 1/4/1
f 6/1/1 4/1/1 3/1/1
f 6/4/1 3/4/1 5/4/1
f 7/1/1 4/1/1 6/1/1
f 10/4/1 9/4/1 8/4/1
f 11/4/1 9/4/1 10/4/1
f 12/6/1 11/6/1 10/6/1
f 13/6/1 11/6/1 12/6/1
f 17/2/1 15/2/1 14/2/1
f 18/2/1 15/2/1 17/2/1
f 20/2/1 17/2/1 16/2/1
f 20/2/1 19/2/1 18/2/1
f 20/2/1 18/2/1 17/2/1
f 21/2/1 19/2/1 20/2/1
f 22/2/1 19/2/1 21/2/1
f 23/2/1 19/2/1 22/2/1
f 24/2/1 20/2/1 16/2/1
f 27/2/1 24/2/1 16/2/1
f 27/2/1 26/2/1 25/2/1
f 27/2/1 25/2/1 24/2/1
f 28/2/1 26/2/1 27/2/1
f 31/2/1 30/2/1 29/2/1
f 32/2/1 30/2/1 31/2/1
f 33/2/2 34/2/2 35/2/2
f 35/2/2 34/2/2 36/2/2
f 37/2/2 38/2/2 40/2/2
f 40/2/2 38/2/2 41/2/2
f 39/2/2 40/2/2 43/2/2
f 41/2/2 42/2/2 43/2/2
f 40/2/2 41/2/2 43/2/2
f 43/2/2 42/2/2 44/2/2
f 39/2/2 43/2/2 45/2/2
f 44/2/2 42/2/2 46/2/2
f 39/2/2 45/2/2 47/2/2
f 45/2/2 46/2/2 47/2/2
f 46/2/2 42/2/2 48/2/2
f 47/2/2 46/2/2 48/2/2
f 49/4/2 50/4/2 51/4/2
f 51/4/2 50/4/2 52/4/2
f 53/4/2 54/4/2 55/4/2
f 55/4/2 54/4/2 56/4/2
f 55/6/2 56/6/2 57/6/2
f 57/6/2 56/6/2 58/6/2
f 62/4/3 60/4/3 59/4/3
f 62/6/3 61/6/3 60/6/3
f 63/6/3 61/6/3 62/6/3
f 64/6/3 61/6/3 63/6/3
f 65/4/3 62/4/3 59/4/3
f 65/3/3 63/3/3 62/3/3
f 66/4/3 64/4/3 63/4/3
f 66/3/3 63/3/3 65/3/3
f 67/4/3 65/4/3 59/4/3
f 67/4/3 66/4/3 65/4/3
f 68/4/3 64/4/3 66/4/3
f 68/4/3 66/4/3 67/4/3
f 69/4/3 67/4/3 59/4/3
f 69/3/3 68/3/3 67/3/3
f 70/4/3 64/4/3 68/4/3
f 70/3/3 68/3/3 69/3/3
f 71/6/3 61/6/3 64/6/3
f 71/4/3 64/4/3 70/4/3
f 72/4/3 69/4/3 59/4/3
f 73/6/3 70/6/3 69/6/3
f 73/4/3 69/4/3 72/4/3
f 73/6/3 71/6/3 70/6/3
f 74/6/3 61/6/3 71/6/3
f 74/6/3 71/6/3 73/6/3
f 77/2/3 76/2/3 75/2/3
f 78/2/3 76/2/3 77/2/3
f 79/2/3 77/2/3 75/2/3
f 79/1/3 78/1/3 77/1/3
f 80/1/3 78/1/3 79/1/3
f 81/2/3 79/2/3 75/2/3
f 81/2/3 80/2/3 79/2/3
f 82/2/3 80/2/3 81/2/3
f 87/4/3 84/4/3 83/4/3
f 88/4/3 84/4/3 87/4/3
f 89/2/3 86/2/3 85/2/3
f 90/2/3 86/2/3 89/2/3
f 93/2/3 92/2/3 91/2/3
f 94/2/3 92/2/3 93/2/3
f 97/4/3 96/4/3 95/4/3
f 98/4/3 96/4/3 97/4/3
f 99/4/4 100/4/4 103/4/4
f 103/4/4 100/4/4 104/4/4
f 101/2/4 102/2/4 105/2/4
f 105/2/4 102/2/4 106/2/4
f 107/2/4 108/2/4 109/2/4
f 109/2/4 108/2/4 110/2/4
f 111/4/4 112/4/4 113/4/4
f 113/4/4 112/4/4 114/4/4
f 115/1/4 116/1/4 118/1/4
f 118/1/4 116/1/4 119/1/4
f 117/2/4 118/2/4 121/2/4
f 119/2/4 120/2/4 121/2/4
f 118/2/4 119/2/4 121/2/4
f 121/2/4 120/2/4 122/2/4
f 123/4/4 124/4/4 126/4/4
f 124/6/4 125/6/4 127/6/4
f 126/4/4 124/4/4 127/4/4
f 127/6/4 125/6/4 128/6/4
f 133/2/5 130/2/5 129/2/5
f 134/2/5 130/2/5 133/2/5
f 135/2/5 132/2/5 131/2/5
f 136/2/5 132/2/5 135/2/5
f 139/2/5 138/2/5 137/2/5
f 140/2/5 138/2/5 139/2/5
f 141/2/5 138/2/5 140/2/5
f 142/2/5 138/2/5 141/2/5
f 144/2/5 141/2/5 140/2/5
f 145/2/5 141/2/5 144/2/5
f 147/2/5 144/2/5 143/2/5
f 147/2/5 146/2/5 145/2/5
f 147/2/5 145/2/5 144/2/5
f 148/2/5 146/2/5 147/2/5
f 153/4/5 150/4/5 149/4/5
f 154/4/5 150/4/5 153/4/5
f 155/4/5 152/4/5 151/4/5
f 156/4/5 152/4/5 155/4/5
f 159/1/5 158/1/5 157/1/5
f 160/1/5 158/1/5 159/1/5
f 163/4/5 162/4/5 161/4/5
f 164/4/5 162/4/5 163/4/5
f 165/4/5 162/4/5 164/4/5
f 166/4/5 162/4/5 165/4/5
f 167/4/5 163/4/5 161/4/5
f 168/4/5 162/4/5 166/4/5
f 169/4/5 167/4/5 161/4/5
f 169/4/5 168/4/5 167/4/5
f 170/4/5 162/4/5 168/4/5
f 170/4/5 168/4/5 169/4/5
f 171/4/6 172/4/6 175/4/6
f 175/4/6 172/4/6 176/4/6
f 173/4/6 174/4/6 177/4/6
f 177/4/6 174/4/6 178/4/6
f 175/1/6 176/1/6 179/1/6
f 179/1/6 176/1/6 180/1/6
f 181/6/6 182/6/6 183/6/6
f 183/6/6 182/6/6 184/6/6
