# MagicaVoxel @ Ephtracy

# group
o 

# material
mtllib spear.mtl
usemtl palette

# normals
vn -1 0 0
vn 1 0 0
vn 0 0 1
vn 0 0 -1
vn 0 -1 0
vn 0 1 0

# texcoords
vt 0.158203 0.5
vt 0.982422 0.5

# verts
v -0.1 0.7 0.1
v -0.1 0.7 -0.1
v -0.1 0.9 0.1
v -0.1 0.9 -0.1
v 0 0 0.1
v 0 0 -0.1
v 0 0.7 0.1
v 0 0.7 -0.1
v 0 0.9 0.1
v 0 0.9 -0.1
v 0 1.2 0.1
v 0 1.2 -0.1
v 0.2 0 0.1
v 0.2 0 -0.1
v 0.2 0.7 0.1
v 0.2 0.7 -0.1
v 0.2 0.9 0.1
v 0.2 0.9 -0.1
v 0.2 1.2 0.1
v 0.2 1.2 -0.1
v 0.3 0.7 0.1
v 0.3 0.7 -0.1
v 0.3 0.9 0.1
v 0.3 0.9 -0.1
v -0.1 0.7 0.1
v -0.1 0.9 0.1
v 0 0 0.1
v 0 0.7 0.1
v 0 0.8 0.1
v 0 0.9 0.1
v 0 1.2 0.1
v 0.2 0 0.1
v 0.2 0.7 0.1
v 0.2 0.8 0.1
v 0.2 0.9 0.1
v 0.2 1.2 0.1
v 0.3 0.7 0.1
v 0.3 0.9 0.1
v -0.1 0.7 -0.1
v -0.1 0.9 -0.1
v 0 0 -0.1
v 0 0.7 -0.1
v 0 0.8 -0.1
v 0 0.9 -0.1
v 0 1.2 -0.1
v 0.2 0 -0.1
v 0.2 0.7 -0.1
v 0.2 0.8 -0.1
v 0.2 0.9 -0.1
v 0.2 1.2 -0.1
v 0.3 0.7 -0.1
v 0.3 0.9 -0.1
v 0 0 0.1
v 0.2 0 0.1
v 0 0 -0.1
v 0.2 0 -0.1
v -0.1 0.7 0.1
v 0 0.7 0.1
v 0.2 0.7 0.1
v 0.3 0.7 0.1
v -0.1 0.7 -0.1
v 0 0.7 -0.1
v 0.2 0.7 -0.1
v 0.3 0.7 -0.1
v -0.1 0.9 0.1
v 0 0.9 0.1
v 0.2 0.9 0.1
v 0.3 0.9 0.1
v -0.1 0.9 -0.1
v 0 0.9 -0.1
v 0.2 0.9 -0.1
v 0.3 0.9 -0.1
v 0 1.2 0.1
v 0.2 1.2 0.1
v 0 1.2 -0.1
v 0.2 1.2 -0.1

# faces
f 3/2/1 2/2/1 1/2/1
f 4/2/1 2/2/1 3/2/1
f 7/1/1 6/1/1 5/1/1
f 8/1/1 6/1/1 7/1/1
f 11/2/1 10/2/1 9/2/1
f 12/2/1 10/2/1 11/2/1
f 13/1/2 14/1/2 15/1/2
f 15/1/2 14/1/2 16/1/2
f 17/2/2 18/2/2 19/2/2
f 19/2/2 18/2/2 20/2/2
f 21/2/2 22/2/2 23/2/2
f 23/2/2 22/2/2 24/2/2
f 28/2/3 26/2/3 25/2/3
f 29/2/3 26/2/3 28/2/3
f 30/2/3 26/2/3 29/2/3
f 32/1/3 28/1/3 27/1/3
f 32/1/3 29/1/3 28/1/3
f 33/1/3 29/1/3 32/1/3
f 34/2/3 31/2/3 30/2/3
f 34/1/3 29/1/3 33/1/3
f 34/2/3 30/2/3 29/2/3
f 35/2/3 31/2/3 34/2/3
f 36/2/3 31/2/3 35/2/3
f 37/2/3 34/2/3 33/2/3
f 37/2/3 35/2/3 34/2/3
f 38/2/3 35/2/3 37/2/3
f 39/2/4 40/2/4 42/2/4
f 42/2/4 40/2/4 43/2/4
f 43/2/4 40/2/4 44/2/4
f 41/1/4 42/1/4 46/1/4
f 42/1/4 43/1/4 46/1/4
f 46/1/4 43/1/4 47/1/4
f 44/2/4 45/2/4 48/2/4
f 47/1/4 43/1/4 48/1/4
f 43/2/4 44/2/4 48/2/4
f 48/2/4 45/2/4 49/2/4
f 49/2/4 45/2/4 50/2/4
f 47/2/4 48/2/4 51/2/4
f 48/2/4 49/2/4 51/2/4
f 51/2/4 49/2/4 52/2/4
f 55/1/5 54/1/5 53/1/5
f 56/1/5 54/1/5 55/1/5
f 61/2/5 58/2/5 57/2/5
f 62/2/5 58/2/5 61/2/5
f 63/2/5 60/2/5 59/2/5
f 64/2/5 60/2/5 63/2/5
f 65/2/6 66/2/6 69/2/6
f 69/2/6 66/2/6 70/2/6
f 67/2/6 68/2/6 71/2/6
f 71/2/6 68/2/6 72/2/6
f 73/2/6 74/2/6 75/2/6
f 75/2/6 74/2/6 76/2/6
