# Blender v2.83.3 OBJ File: 'house.blend'
# www.blender.org
mtllib house.mtl
o Cube
v 1.000000 1.000000 -1.000000
v 1.000000 -1.000000 -1.000000
v 1.000000 1.000000 1.000000
v 1.000000 -1.000000 1.000000
v -1.000000 1.000000 -1.000000
v -1.000000 -1.000000 -1.000000
v -1.000000 1.000000 1.000000
v -1.000000 -1.000000 1.000000
v 1.000000 -1.000000 -5.469094
v -1.000000 -1.000000 -5.469094
v 1.000000 1.000000 -5.469094
v -1.000000 1.000000 -5.469094
v 1.000000 -1.000000 -7.830964
v -1.000000 -1.000000 -7.830964
v 1.000000 1.000000 -7.830964
v -1.000000 1.000000 -7.830964
v 5.090052 1.000000 -1.000000
v 5.090052 -1.000000 -1.000000
v 5.090052 1.000000 1.000000
v 5.090052 -1.000000 1.000000
v 1.085469 6.965854 -1.000000
v 5.090052 -1.000000 -5.469094
v 5.090052 1.000000 -7.830964
v 5.090052 -1.000000 -7.830964
v 7.293550 1.000000 -1.000000
v 7.293550 -1.000000 -1.000000
v 7.293550 1.000000 1.000000
v 7.293550 -1.000000 1.000000
v 7.293550 1.000000 -5.469094
v 7.293550 -1.000000 -5.469094
v 7.293550 1.000000 -7.830964
v 7.293550 -1.000000 -7.830964
v 5.090052 4.478175 -1.000000
v 5.090052 4.478175 1.000000
v 7.293550 4.478175 -1.000000
v 7.293550 4.478175 1.000000
v 5.090052 6.941713 -1.000000
v 5.090052 6.941713 1.000000
v 7.293550 6.941713 -1.000000
v 7.293550 6.941713 1.000000
v 1.000000 6.965854 1.000000
v -1.000000 6.965854 1.000000
v 1.000000 6.965854 -1.000000
v -1.000000 6.965854 -1.000000
v 1.085469 1.000000 1.000000
v 3.045026 1.000000 -1.000000
v 3.045026 -1.000000 -7.830964
v 3.045026 -1.000000 -5.469094
v 3.045026 -0.801252 1.000000
v 3.045026 1.000000 1.000000
v 3.045026 1.000000 -7.830964
v 3.045026 -1.000000 -1.000000
v 2.022513 1.000000 -5.469094
v 2.022513 -1.000000 -5.469094
v 2.221261 1.000000 1.000000
v 2.022513 1.000000 -7.830964
v 2.022513 1.000000 -1.000000
v 2.022513 -1.000000 -7.830964
v 2.221261 -0.801252 1.000000
v 2.022513 -1.000000 -1.000000
v 4.067539 1.000000 -1.000000
v 4.067539 -1.000000 -7.830964
v 3.868791 -0.801252 1.000000
v 4.067539 -1.000000 -1.000000
v 1.085469 1.000000 -1.000000
v 4.067539 -1.000000 -5.469094
v 4.067539 1.000000 1.000000
v 4.067539 1.000000 -7.830964
v 3.868791 2.801252 1.000000
v 3.243774 2.801252 1.000000
v 3.045026 3.000000 -1.000000
v 4.067539 3.000000 -1.000000
v 2.022513 3.000000 -1.000000
v 3.045026 3.000000 -1.000000
v 2.846278 2.801252 1.000000
v 2.221261 2.801252 1.000000
v 4.090052 1.000000 -1.000000
v 4.090052 1.000000 1.000000
v 4.090052 4.478175 -1.000000
v 4.090052 4.478175 1.000000
v 1.090052 4.478175 -1.000000
v 1.090052 4.478175 1.000000
v 1.090052 6.941713 -1.000000
v 1.090052 6.941713 1.000000
v -1.000000 7.000000 -1.000000
v 1.000000 7.000000 -1.000000
v -1.000000 7.000000 -5.469094
v 1.000000 7.000000 -5.469094
v -1.000000 7.000000 -5.469094
v 1.000000 7.000000 -5.469094
v -1.000000 7.000000 -7.830964
v 1.000000 7.000000 -7.830964
v 2.022513 7.000000 -5.469094
v 1.000000 7.000000 -5.469094
v 1.000000 7.000000 -7.830964
v 2.022513 7.000000 -7.830964
v 2.022513 7.000000 -5.469094
v 1.000000 7.000000 -5.469094
v 4.067539 7.000000 -1.000000
v 5.090052 7.000000 -1.000000
v 1.000000 7.000000 -1.000000
v 5.090052 7.000000 -5.469094
v 5.090052 7.000000 -7.830964
v 7.293550 7.000000 -5.469094
v 7.293550 7.000000 -1.000000
v 7.293550 7.000000 -7.830964
v 4.067539 7.000000 -5.469094
v 3.045026 7.000000 -5.469094
v 2.022513 7.000000 -1.000000
v 3.045026 7.000000 -1.000000
v 4.067539 7.000000 -7.830964
v 3.045026 7.000000 -7.830964
v 2.022513 7.000000 -7.830964
v 1.085469 6.965854 1.000000
v 2.022513 -1.000000 1.000000
v 3.045026 -1.000000 1.000000
v 2.022513 1.000000 1.000000
v 4.067539 -1.000000 1.000000
v 3.868791 1.000000 1.000000
v 4.067539 3.000000 1.000000
v 3.045026 3.000000 1.000000
v 3.045026 1.000000 1.000000
v 3.045026 3.000000 1.000000
v 2.022513 3.000000 1.000000
v 3.868791 1.000000 0.382445
v 3.045026 1.000000 0.382445
v 3.045026 -0.801252 0.382445
v 2.221261 1.000000 0.382445
v 2.221261 -0.801252 0.382445
v 3.868791 -0.801252 0.382445
v 3.868791 2.801252 0.382445
v 3.243774 2.801252 0.382445
v 2.846278 2.801252 0.382445
v 2.221261 2.801252 0.382445
v -0.028055 8.411098 -6.974325
v -0.902248 6.411098 -7.848517
v -0.028055 8.411098 0.078574
v -0.902248 6.411098 0.952767
v 6.400595 8.411098 -6.974325
v 7.274788 6.411098 -7.848517
v 6.400595 8.411098 0.078574
v 7.274788 6.411098 0.952767
v -0.902248 8.411098 0.952767
v -0.902248 8.411098 -7.848517
v 7.274788 8.411098 0.952767
v 7.274788 8.411098 -7.848517
v -0.028055 10.646832 0.078574
v 3.229395 13.904284 -3.178877
v 3.229396 13.904284 -3.716874
v -0.028055 10.646832 -6.974325
v 6.400595 10.646832 0.078574
v 3.143144 13.904284 -3.178877
v 6.400595 10.646832 -6.974325
v 3.143144 13.904284 -3.716874
vt 0.625000 1.000000
vt 0.625000 0.750000
vt 0.625000 0.750000
vt 0.625000 1.000000
vt 0.375000 0.750000
vt 0.375000 1.000000
vt 0.375000 0.000000
vt 0.625000 0.000000
vt 0.625000 0.250000
vt 0.375000 0.250000
vt 0.125000 0.500000
vt 0.375000 0.500000
vt 0.125000 0.750000
vt 0.625000 0.750000
vt 0.375000 0.750000
vt 0.375000 0.750000
vt 0.625000 0.750000
vt 0.375000 0.500000
vt 0.375000 0.500000
vt 0.375000 0.500000
vt 0.375000 0.500000
vt 0.875000 0.500000
vt 0.625000 0.500000
vt 0.625000 0.500000
vt 0.875000 0.500000
vt 0.625000 0.250000
vt 0.375000 0.250000
vt 0.125000 0.500000
vt 0.375000 0.500000
vt 0.625000 0.500000
vt 0.625000 0.500000
vt 0.625000 0.500000
vt 0.375000 0.250000
vt 0.625000 0.250000
vt 0.625000 0.500000
vt 0.375000 0.500000
vt 0.625000 0.500000
vt 0.625000 0.500000
vt 0.625000 0.500000
vt 0.125000 0.500000
vt 0.375000 0.500000
vt 0.375000 0.500000
vt 0.375000 0.500000
vt 0.625000 0.500000
vt 0.625000 0.500000
vt 0.375000 0.500000
vt 0.625000 0.500000
vt 0.625000 0.500000
vt 0.625000 0.500000
vt 0.625000 0.500000
vt 0.375000 0.500000
vt 0.625000 0.500000
vt 0.625000 0.500000
vt 0.625000 0.500000
vt 0.625000 0.750000
vt 0.375000 0.750000
vt 0.625000 0.500000
vt 0.625000 0.500000
vt 0.625000 0.500000
vt 0.625000 0.500000
vt 0.625000 0.500000
vt 0.625000 0.500000
vt 0.625000 0.500000
vt 0.625000 0.500000
vt 0.625000 0.750000
vt 0.625000 0.500000
vt 0.625000 0.750000
vt 0.625000 0.750000
vt 0.625000 0.500000
vt 0.625000 0.500000
vt 0.625000 0.500000
vt 0.625000 0.750000
vt 0.625000 0.500000
vt 0.625000 0.750000
vt 0.625000 0.500000
vt 0.875000 0.500000
vt 0.875000 0.750000
vt 0.625000 0.000000
vt 0.625000 0.250000
vt 0.625000 0.500000
vt 0.625000 0.500000
vt 0.875000 0.500000
vt 0.375000 0.500000
vt 0.625000 0.500000
vt 0.375000 0.500000
vt 0.375000 0.500000
vt 0.375000 0.500000
vt 0.375000 0.500000
vt 0.375000 0.500000
vt 0.625000 0.750000
vt 0.625000 0.500000
vt 0.625000 0.500000
vt 0.625000 0.750000
vt 0.375000 0.750000
vt 0.375000 0.750000
vt 0.625000 0.500000
vt 0.625000 0.500000
vt 0.625000 0.500000
vt 0.625000 0.750000
vt 0.625000 0.750000
vt 0.625000 0.750000
vt 0.625000 0.750000
vt 0.625000 0.750000
vt 0.625000 0.500000
vt 0.625000 0.500000
vt 0.625000 0.750000
vt 0.625000 0.500000
vt 0.625000 0.500000
vt 0.625000 0.750000
vt 0.625000 0.750000
vt 0.625000 0.750000
vt 0.625000 0.750000
vt 0.625000 0.750000
vt 0.625000 0.500000
vt 0.399844 0.750000
vt 0.399844 0.750000
vt 0.399844 0.750000
vt 0.399844 0.750000
vt 0.625000 0.500000
vt 0.625000 0.750000
vt 0.625000 0.750000
vt 0.625000 0.750000
vt 0.625000 0.750000
vt 0.625000 0.750000
vt 0.625000 0.750000
vt 0.625000 0.750000
vt 0.625000 0.500000
vt 0.625000 0.750000
vt 0.875000 0.500000
vt 0.875000 0.500000
vt 0.625000 0.250000
vt 0.625000 0.250000
vt 0.625000 0.500000
vt 0.875000 0.500000
vt 0.625000 0.250000
vt 0.625000 0.250000
vt 0.625000 0.500000
vt 0.625000 0.500000
vt 0.625000 0.500000
vt 0.625000 0.500000
vt 0.625000 0.500000
vt 0.625000 0.500000
vt 0.625000 0.500000
vt 0.625000 0.750000
vt 0.625000 0.750000
vt 0.399844 0.750000
vt 0.625000 0.750000
vt 0.399844 0.750000
vt 0.625000 0.750000
vt 0.375000 0.000000
vt 0.625000 0.000000
vt 0.625000 0.250000
vt 0.375000 0.250000
vt 0.401727 0.274831
vt 0.598273 0.274831
vt 0.598273 0.274831
vt 0.401727 0.274831
vt 0.375000 0.500000
vt 0.625000 0.500000
vt 0.625000 0.750000
vt 0.375000 0.750000
vt 0.375000 0.750000
vt 0.625000 0.750000
vt 0.625000 1.000000
vt 0.375000 1.000000
vt 0.125000 0.500000
vt 0.375000 0.500000
vt 0.375000 0.750000
vt 0.125000 0.750000
vt 0.625000 0.500000
vt 0.875000 0.500000
vt 0.875000 0.750000
vt 0.625000 0.750000
vt 0.598273 0.475169
vt 0.625000 0.500000
vt 0.401727 0.475169
vt 0.375000 0.500000
vt 0.375000 0.250000
vt 0.401727 0.475169
vt 0.598273 0.475169
vt 0.498681 0.382641
vt 0.498681 0.367359
vt 0.501318 0.382641
vt 0.501318 0.367359
vn 0.0000 0.0000 1.0000
vn -1.0000 0.0000 0.0000
vn 0.0000 -1.0000 0.0000
vn 1.0000 0.0000 0.0000
vn 0.0000 0.0000 -1.0000
vn 0.0000 1.0000 0.0000
vn 0.9940 -0.1097 0.0000
vn -0.9940 -0.1097 0.0000
vn -0.7071 0.7071 0.0000
vn 0.0000 0.7071 0.7071
vn 0.7071 0.7071 0.0000
vn 0.0000 0.7071 -0.7071
usemtl Material
s off
f 7/1/1 3/2/1 41/3/1 42/4/1
f 4/5/1 3/2/1 7/1/1 8/6/1
f 8/7/2 7/8/2 5/9/2 6/10/2
f 6/11/3 2/12/3 4/5/3 8/13/3
f 67/14/1 118/15/1 20/16/1 19/17/1
f 66/18/3 62/19/3 24/20/3 22/21/3
f 12/22/1 11/23/1 90/24/1 89/25/1
f 6/10/2 5/9/2 12/26/2 10/27/2
f 2/12/3 6/11/3 10/28/3 9/29/3
f 1/30/4 11/23/4 88/31/4 86/32/4
f 14/33/5 16/34/5 15/35/5 13/36/5
f 53/37/5 11/23/5 98/38/5 97/39/5
f 10/27/2 12/26/2 16/34/2 14/33/2
f 9/29/3 10/28/3 14/40/3 13/36/3
f 18/41/3 22/21/3 30/42/3 26/43/3
f 24/20/5 23/44/5 31/45/5 32/46/5
f 22/21/3 24/20/3 32/46/3 30/42/3
f 68/47/5 51/48/5 112/49/5 111/50/5
f 118/15/3 64/51/3 18/41/3 20/16/3
f 61/52/6 67/14/6 19/17/6 17/53/6
f 64/51/3 66/18/3 22/21/3 18/41/3
f 62/19/5 68/47/5 23/44/5 24/20/5
f 26/43/4 25/54/4 27/55/4 28/56/4
f 25/54/4 26/43/4 30/42/4 29/57/4
f 29/57/4 30/42/4 32/46/4 31/45/4
f 20/16/3 18/41/3 26/43/3 28/56/3
f 19/17/1 20/16/1 28/56/1 27/55/1
f 1/30/1 57/58/1 109/59/1 101/60/1
f 29/57/4 31/45/4 106/61/4 104/62/4
f 25/54/5 17/53/5 33/63/5 35/64/5
f 36/65/4 35/64/4 39/66/4 40/67/4
f 27/55/4 25/54/4 35/64/4 36/65/4
f 19/17/1 27/55/1 36/65/1 34/68/1
f 33/63/5 17/53/5 77/69/5 79/70/5
f 37/71/6 38/72/6 40/67/6 39/66/6
f 34/68/1 36/65/1 40/67/1 38/72/1
f 38/72/6 37/71/6 83/73/6 84/74/6
f 35/64/5 33/63/5 37/71/5 39/66/5
f 43/75/6 44/76/6 42/77/6 41/3/6
f 5/9/2 7/8/2 42/78/2 44/79/2
f 1/30/5 43/75/5 21/80/5 65/81/5
f 1/30/5 5/82/5 44/76/5 43/75/5
f 58/83/5 56/84/5 51/48/5 47/85/5
f 60/86/3 54/87/3 48/88/3 52/89/3
f 50/90/4 46/91/4 74/92/4 123/93/4
f 115/94/3 60/86/3 52/89/3 116/95/3
f 56/84/2 53/37/2 97/39/2 113/96/2
f 17/53/1 25/54/1 105/97/1 100/98/1
f 54/87/3 58/83/3 47/85/3 48/88/3
f 119/99/2 69/100/2 131/101/2 125/102/2
f 3/2/1 4/5/1 115/94/1 117/103/1
f 9/29/3 13/36/3 58/83/3 54/87/3
f 51/48/5 56/84/5 113/96/5 112/49/5
f 11/23/1 53/37/1 93/104/1 94/105/1
f 4/5/3 2/12/3 60/86/3 115/94/3
f 1/30/6 3/2/6 117/103/6 57/58/6
f 2/12/3 9/29/3 54/87/3 60/86/3
f 13/36/5 15/35/5 56/84/5 58/83/5
f 47/85/5 51/48/5 68/47/5 62/19/5
f 52/89/3 48/88/3 66/18/3 64/51/3
f 46/91/2 50/90/2 121/106/2 71/107/2
f 116/95/3 52/89/3 64/51/3 118/15/3
f 25/54/4 29/57/4 104/62/4 105/97/4
f 61/52/1 17/53/1 100/98/1 99/108/1
f 48/88/3 47/85/3 62/19/3 66/18/3
f 76/109/4 55/110/4 128/111/4 134/112/4
f 71/107/6 121/106/6 120/113/6 72/114/6
f 61/52/5 46/91/5 71/107/5 72/114/5
f 67/14/4 61/52/4 72/114/4 120/113/4
f 49/115/6 63/116/6 130/117/6 127/118/6
f 73/119/6 124/120/6 123/93/6 74/92/6
f 70/121/7 122/122/7 126/123/7 132/124/7
f 57/58/2 117/103/2 124/120/2 73/119/2
f 46/91/5 57/58/5 73/119/5 74/92/5
f 34/68/6 33/63/6 79/70/6 80/125/6
f 17/53/3 19/17/3 78/126/3 77/69/3
f 81/127/2 82/128/2 84/74/2 83/73/2
f 37/71/5 33/63/5 81/127/5 83/73/5
f 33/63/3 34/68/3 82/128/3 81/127/3
f 34/68/1 38/72/1 84/74/1 82/128/1
f 85/129/6 86/32/6 88/31/6 87/130/6
f 11/23/5 12/22/5 87/130/5 88/31/5
f 12/26/2 5/9/2 85/131/2 87/132/2
f 5/82/1 1/30/1 86/32/1 85/129/1
f 89/25/6 90/24/6 92/133/6 91/134/6
f 11/23/4 15/35/4 92/133/4 90/24/4
f 16/34/2 12/26/2 89/135/2 91/136/2
f 15/35/5 16/34/5 91/136/5 92/133/5
f 95/137/6 94/105/6 93/104/6 96/138/6
f 15/35/2 11/23/2 94/105/2 95/137/2
f 56/84/5 15/35/5 95/137/5 96/138/5
f 53/37/4 56/84/4 96/138/4 93/104/4
f 107/139/6 99/108/6 100/98/6 102/140/6
f 111/50/6 107/139/6 102/140/6 103/141/6
f 103/141/6 102/140/6 104/62/6 106/61/6
f 102/140/6 100/98/6 105/97/6 104/62/6
f 113/96/6 97/39/6 108/142/6 112/49/6
f 97/39/6 109/59/6 110/143/6 108/142/6
f 98/38/6 101/60/6 109/59/6 97/39/6
f 112/49/6 108/142/6 107/139/6 111/50/6
f 108/142/6 110/143/6 99/108/6 107/139/6
f 11/23/2 1/30/2 101/60/2 98/38/2
f 31/45/5 23/44/5 103/141/5 106/61/5
f 57/58/1 46/91/1 110/143/1 109/59/1
f 23/44/5 68/47/5 111/50/5 103/141/5
f 46/91/1 61/52/1 99/108/1 110/143/1
f 45/144/4 65/81/4 21/80/4 114/145/4
f 43/75/6 41/3/6 114/145/6 21/80/6
f 3/2/3 1/30/3 65/81/3 45/144/3
f 41/3/1 3/2/1 45/144/1 114/145/1
f 49/115/1 59/146/1 115/94/1 116/95/1
f 59/146/1 55/110/1 117/103/1 115/94/1
f 63/116/1 49/115/1 116/95/1 118/15/1
f 119/99/1 63/116/1 118/15/1 67/14/1
f 70/121/1 69/100/1 120/113/1 121/106/1
f 122/122/1 70/121/1 121/106/1 50/90/1
f 69/100/1 119/99/1 67/14/1 120/113/1
f 76/109/1 75/147/1 123/93/1 124/120/1
f 75/147/1 122/122/1 50/90/1 123/93/1
f 55/110/1 76/109/1 124/120/1 117/103/1
f 128/111/1 129/148/1 127/118/1 126/123/1
f 126/123/1 127/118/1 130/117/1 125/102/1
f 126/123/1 125/102/1 131/101/1 132/124/1
f 128/111/1 126/123/1 133/149/1 134/112/1
f 63/116/2 119/99/2 125/102/2 130/117/2
f 59/146/6 49/115/6 127/118/6 129/148/6
f 75/147/3 76/109/3 134/112/3 133/149/3
f 69/100/3 70/121/3 132/124/3 131/101/3
f 55/110/4 59/146/4 129/148/4 128/111/4
f 122/122/8 75/147/8 133/149/8 126/123/8
f 138/150/2 143/151/2 144/152/2 136/153/2
f 139/154/5 135/155/5 150/156/5 153/157/5
f 136/158/3 140/159/3 142/160/3 138/161/3
f 140/162/4 146/163/4 145/164/4 142/165/4
f 136/166/5 144/167/5 146/168/5 140/169/5
f 142/170/1 145/171/1 143/172/1 138/173/1
f 137/174/6 135/155/6 144/152/6 143/175/6
f 141/176/6 137/174/6 143/175/6 145/177/6
f 139/154/6 141/176/6 145/177/6 146/178/6
f 135/155/6 139/154/6 146/178/6 144/152/6
f 137/174/1 141/176/1 151/179/1 147/180/1
f 141/176/4 139/154/4 153/157/4 151/179/4
f 135/155/2 137/174/2 147/180/2 150/156/2
f 148/181/9 149/182/9 150/156/9 147/180/9
f 152/183/10 148/181/10 147/180/10 151/179/10
f 154/184/11 152/183/11 151/179/11 153/157/11
f 149/182/12 154/184/12 153/157/12 150/156/12
f 154/184/3 149/182/3 148/181/3 152/183/3
