# Blender v2.83.3 OBJ File: 'house3.blend'
# www.blender.org
mtllib house3.mtl
o Cube
v 1.000000 1.344055 -0.655945
v 1.000000 -1.000000 -1.000000
v 1.000000 1.344055 0.655945
v 1.000000 -1.000000 1.000000
v -1.000000 0.000000 -1.000000
v -1.000000 -1.000000 -1.000000
v -1.000000 1.000000 1.000000
v -1.000000 -1.000000 1.000000
v 7.000000 1.000000 -1.000000
v 7.000000 -1.000000 -1.000000
v 7.000000 1.000000 1.000000
v 7.000000 -1.000000 1.000000
v 1.000000 1.000000 -7.000000
v 1.000000 -1.000000 -7.000000
v 7.000000 1.000000 -7.000000
v 7.000000 -1.000000 -7.000000
v 1.000000 1.000000 6.000000
v 1.000000 -1.000000 6.000000
v 7.000000 1.000000 6.000000
v 7.000000 -1.000000 6.000000
v 1.000000 -1.000000 -4.000000
v -1.000000 -1.000000 -4.000000
v 1.000000 1.000000 -4.000000
v -1.000000 1.270190 -3.729810
v -2.000000 -1.000000 -1.000000
v -2.000000 -1.000000 1.000000
v -2.000000 1.000000 1.000000
v 1.000000 0.000000 1.000000
v -1.000000 1.000000 1.000000
v -1.000000 1.270190 -1.270190
v -2.000000 1.000000 1.000000
v -2.000000 1.000000 -1.000000
v -1.000000 0.433014 1.000000
v -1.000000 0.000000 1.000000
v -2.000000 0.433014 1.000000
v 1.000000 0.000000 -1.000000
v 7.000000 0.000000 -1.000000
v 7.000000 0.000000 1.000000
v 1.000000 0.000000 -7.000000
v 7.000000 0.000000 -7.000000
v 1.000000 0.000000 6.000000
v 7.000000 0.000000 6.000000
v 1.000000 0.000000 -4.000000
v -1.000000 0.000000 -4.000000
v -2.000000 0.000000 1.000000
v -2.000000 0.000000 -1.000000
v -2.742836 -1.000000 -1.000000
v -2.742836 -1.000000 1.000000
v -2.742836 0.000000 -1.000000
v -2.742836 0.000000 1.000000
v 1.000000 -0.500000 -1.000000
v 1.000000 -0.500000 1.000000
v -1.000000 -0.500000 -1.000000
v 7.000000 -0.500000 -1.000000
v 7.000000 -0.500000 1.000000
v 1.000000 -0.500000 -7.000000
v 7.000000 -0.500000 -7.000000
v 1.000000 -0.500000 6.000000
v 7.000000 -0.500000 6.000000
v 1.000000 -0.500000 -4.000000
v -1.000000 -0.500000 -4.000000
v -2.000000 -0.500000 -1.000000
v -1.000000 -0.500000 1.000000
v -2.000000 -0.500000 1.000000
v -2.742836 -0.500000 -1.000000
v -2.742836 -0.500000 1.000000
v -3.297089 -1.000000 -1.000000
v -3.297089 -1.000000 1.000000
v -3.297089 -0.500000 -1.000000
v -3.297089 -0.500000 1.000000
v -1.000000 5.729810 -1.270190
v 1.000000 6.000000 -1.000000
v -1.000000 5.729810 -3.729810
v 1.000000 6.000000 -4.000000
v -1.000000 1.000000 -1.000000
v -1.000000 1.000000 -4.000000
v -1.000000 6.000000 -1.000000
v -1.000000 6.000000 -4.000000
v -0.803342 1.270190 -1.270190
v -0.803342 1.270190 -3.729810
v -0.803342 5.729810 -1.270190
v -0.803342 5.729810 -3.729810
v 1.000000 2.655945 -0.655945
v 1.000000 2.655945 0.655945
v 7.000000 3.000000 -1.000000
v 7.000000 3.000000 1.000000
v 1.000000 3.000000 -7.000000
v 7.000000 3.000000 -7.000000
v 7.000000 3.000000 6.000000
v 1.000000 3.000000 6.000000
v 7.000000 3.000000 1.000000
v 1.000000 3.000000 1.000000
v 1.000000 3.000000 -1.000000
v 7.000000 3.000000 -1.000000
v 1.000000 3.000000 -7.000000
v 7.000000 3.000000 -7.000000
v 7.000000 3.000000 6.000000
v 1.000000 3.000000 6.000000
v 1.000000 6.000000 -1.000000
v 7.000000 6.000000 -1.000000
v 1.822435 6.485899 -5.691665
v 6.177565 6.000000 -6.177565
v 7.000000 4.500000 -7.000000
v 7.000000 4.500000 -1.000000
v 1.000000 4.500000 -7.000000
v 1.000000 4.500000 -1.000000
v 1.000000 4.500000 6.000000
v 1.000000 4.500000 1.000000
v 7.000000 4.500000 1.000000
v 7.000000 4.500000 6.000000
v 1.822435 6.000000 0.177565
v 6.177565 6.000000 0.177565
v 1.000000 4.500000 1.000000
v 7.000000 4.500000 1.000000
v 1.000000 1.000000 -1.000000
v 1.000000 1.000000 1.000000
v 1.000000 3.000000 -1.000000
v 1.000000 3.000000 1.000000
v 1.356824 1.344055 -0.655945
v 1.356824 1.344055 0.655945
v 1.356824 2.655945 -0.655945
v 1.356824 2.655945 0.655945
v 7.000000 6.000000 1.000000
v 1.000000 6.000000 1.000000
v 7.000000 6.000000 6.000000
v 1.000000 6.000000 6.000000
v 1.000000 6.000000 -7.000000
v 7.000000 6.000000 -7.000000
v 1.822435 6.000000 -1.000000
v 6.177565 6.000000 -1.000000
v 1.000000 6.000000 1.000000
v 7.000000 6.000000 1.000000
v 6.500027 6.000000 1.499973
v 1.499973 6.000000 1.499973
v 6.500027 6.000000 5.500027
v 1.499973 6.000000 5.500027
v 1.822435 6.000000 -6.177565
v 6.177565 6.000000 -6.177565
v 1.822435 6.485899 -1.485899
v 6.177565 6.000000 -1.000000
v 1.822435 6.000000 0.177565
v 6.177565 6.000000 0.177565
v 6.315845 9.487156 1.684156
v 1.684156 9.487156 1.684156
v 6.315845 9.487156 5.315845
v 1.684156 9.487156 5.315845
v 5.677592 8.976978 2.322408
v 2.322408 8.976978 2.322408
v 5.677592 8.976978 4.677592
v 2.322408 8.976978 4.677592
v 6.500027 8.487536 1.499973
v 1.499973 8.487536 1.499973
v 6.500027 8.487536 5.500027
v 1.499973 8.487536 5.500027
v 5.677592 9.487156 2.322408
v 2.322408 9.487156 2.322408
v 5.677592 9.487156 4.677592
v 2.322408 9.487156 4.677592
v 1.822435 8.662523 -1.000000
v 6.177565 8.662523 -1.000000
v 1.822435 8.662523 0.177565
v 6.177565 8.662523 0.177565
v 1.822435 6.398174 -1.398174
v 1.822435 6.398174 -5.779391
v 2.383544 7.170622 -1.485899
v 2.383544 7.170622 -5.691665
v 4.632509 9.760103 -3.184310
v 6.177565 8.211101 -1.000000
v 3.993254 10.395411 -3.184310
v 3.993254 10.395411 -3.993254
v 6.177565 8.211101 -6.177565
v 4.006745 10.395411 -3.184310
v 1.822435 7.812927 -1.398174
v 1.822435 7.812927 -5.779391
v 4.006745 10.395411 -3.993254
v 1.822435 10.096513 -1.000000
v 2.388446 10.662523 -0.433989
v 5.611554 10.662523 -0.433989
v 6.177565 10.096513 -1.000000
v 2.388446 10.662523 -0.388446
v 1.822435 10.096513 0.177565
v 6.177565 10.096513 0.177565
v 5.611554 10.662523 -0.388446
v 1.822435 6.000000 -1.000000
v 1.822435 6.000000 -6.177565
v 2.257920 6.398174 -1.398174
v 1.822435 8.211101 -1.000000
v 1.822435 8.211101 -6.177565
v 2.257920 6.398174 -5.779391
v 2.461690 7.575794 -1.000000
v 2.461690 7.575794 -6.177565
vt 0.625000 0.500000
vt 0.875000 0.500000
vt 0.875000 0.750000
vt 0.625000 0.750000
vt 0.500000 0.750000
vt 0.625000 1.000000
vt 0.500000 1.000000
vt 0.125000 0.500000
vt 0.125000 0.750000
vt 0.125000 0.750000
vt 0.125000 0.500000
vt 0.375000 0.500000
vt 0.375000 0.750000
vt 0.625000 0.500000
vt 0.625000 0.500000
vt 0.625000 0.500000
vt 0.625000 0.500000
vt 0.437500 0.500000
vt 0.375000 0.500000
vt 0.437500 0.500000
vt 0.500000 0.500000
vt 0.625000 0.500000
vt 0.625000 0.750000
vt 0.500000 0.750000
vt 0.375000 0.500000
vt 0.375000 0.500000
vt 0.375000 0.500000
vt 0.375000 0.750000
vt 0.625000 0.750000
vt 0.625000 0.750000
vt 0.625000 0.750000
vt 0.500000 0.500000
vt 0.500000 0.500000
vt 0.500000 0.500000
vt 0.625000 0.500000
vt 0.437500 0.500000
vt 0.437500 0.500000
vt 0.437500 0.750000
vt 0.375000 0.750000
vt 0.375000 0.750000
vt 0.437500 0.750000
vt 0.437500 0.750000
vt 0.500000 0.750000
vt 0.500000 0.250000
vt 0.625000 0.250000
vt 0.625000 0.500000
vt 0.500000 0.500000
vt 0.500000 0.250000
vt 0.625000 0.250000
vt 0.125000 0.500000
vt 0.625000 0.500000
vt 0.625000 0.500000
vt 0.500000 0.000000
vt 0.625000 0.000000
vt 0.625000 0.250000
vt 0.500000 0.250000
vt 0.437500 0.750000
vt 0.437500 0.250000
vt 0.375000 0.250000
vt 0.375000 0.250000
vt 0.437500 0.250000
vt 0.625000 1.000000
vt 0.500000 1.000000
vt 0.437500 0.250000
vt 0.500000 0.250000
vt 0.500000 0.000000
vt 0.875000 0.750000
vt 0.875000 0.750000
vt 0.875000 0.750000
vt 0.437500 1.000000
vt 0.437500 1.000000
vt 0.875000 0.750000
vt 0.875000 0.750000
vt 0.500000 0.750000
vt 0.625000 0.750000
vt 0.437500 0.500000
vt 0.437500 0.000000
vt 0.437500 0.250000
vt 0.500000 1.000000
vt 0.437500 1.000000
vt 0.375000 0.250000
vt 0.125000 0.750000
vt 0.125000 0.500000
vt 0.000000 0.000000
vt 0.000000 0.000000
vt 0.000000 0.000000
vt 0.000000 0.000000
vt 0.375000 1.000000
vt 0.375000 1.000000
vt 0.437500 0.250000
vt 0.437500 0.000000
vt 0.375000 1.000000
vt 0.375000 0.250000
vt 0.375000 0.000000
vt 0.375000 0.250000
vt 0.125000 0.750000
vt 0.125000 0.500000
vt 0.437500 1.000000
vt 0.375000 1.000000
vt 0.875000 0.500000
vt 0.875000 0.500000
vt 0.625000 0.250000
vt 0.625000 0.250000
vt 0.625000 0.250000
vt 0.625000 0.250000
vt 0.625000 0.250000
vt 0.625000 0.250000
vt 0.625000 0.250000
vt 0.625000 0.250000
vt 0.625000 0.250000
vt 0.625000 0.250000
vt 0.625000 0.750000
vt 0.625000 0.750000
vt 0.625000 0.750000
vt 0.625000 0.500000
vt 0.625000 0.500000
vt 0.625000 0.500000
vt 0.625000 0.750000
vt 0.625000 0.706993
vt 0.625000 0.706993
vt 0.625000 0.706993
vt 0.625000 0.706993
vt 0.625000 0.500000
vt 0.625000 0.500000
vt 0.625000 0.500000
vt 0.625000 0.500000
vt 0.625000 0.750000
vt 0.625000 0.750000
vt 0.625000 0.750000
vt 0.625000 0.750000
vt 0.625000 0.750000
vt 0.625000 0.750000
vt 0.625000 0.500000
vt 0.625000 0.500000
vt 0.625000 0.500000
vt 0.625000 0.500000
vt 0.625000 0.500000
vt 0.625000 0.500000
vt 0.625000 0.500000
vt 0.625000 0.500000
vt 0.625000 0.750000
vt 0.625000 0.750000
vt 0.625000 0.750000
vt 0.625000 0.750000
vt 0.625000 0.500000
vt 0.625000 0.500000
vt 0.625000 0.500000
vt 0.625000 0.500000
vt 0.625000 0.500000
vt 0.625000 0.500000
vt 0.625000 0.500000
vt 0.625000 0.500000
vt 0.625000 0.500000
vt 0.625000 0.500000
vt 0.625000 0.543007
vt 0.625000 0.543007
vt 0.625000 0.543007
vt 0.625000 0.543007
vt 0.625000 0.750000
vt 0.625000 0.750000
vt 0.625000 0.750000
vt 0.625000 0.750000
vt 0.625000 0.500000
vt 0.625000 0.500000
vt 0.625000 0.500000
vt 0.625000 0.500000
vt 0.625000 0.500000
vt 0.625000 0.500000
vt 0.625000 0.750000
vt 0.625000 0.750000
vt 0.625000 0.750000
vt 0.625000 0.750000
vt 0.625000 0.500000
vt 0.625000 0.500000
vt 0.625000 0.750000
vt 0.625000 0.750000
vt 0.625000 0.750000
vt 0.625000 0.750000
vt 0.625000 0.750000
vt 0.625000 0.750000
vt 0.625000 0.750000
vt 0.625000 0.750000
vt 0.625000 0.750000
vt 0.625000 0.750000
vt 0.625000 0.750000
vt 0.625000 0.750000
vt 0.625000 0.500000
vt 0.625000 0.500000
vt 0.625000 0.500000
vt 0.625000 0.500000
vt 0.625000 0.500000
vt 0.625000 0.500000
vt 0.625000 0.500000
vt 0.625000 0.500000
vt 0.625000 0.500000
vt 0.625000 0.500000
vt 0.625000 0.500000
vt 0.000000 0.000000
vt 0.000000 0.000000
vt 0.000000 0.000000
vt 0.000000 0.000000
vt 0.625000 0.500000
vt 0.625000 0.500000
vt 0.625000 0.500000
vt 0.625000 0.500000
vt 0.625000 0.500000
vt 0.625000 0.500000
vt 0.625000 0.500000
vt 0.625000 0.500000
vt 0.625000 0.500000
vt 0.000000 0.000000
vt 0.000000 0.000000
vt 0.000000 0.000000
vt 0.000000 0.000000
vt 0.000000 0.000000
vt 0.000000 0.000000
vt 0.000000 0.000000
vt 0.000000 0.000000
vt 0.000000 0.000000
vt 0.000000 0.000000
vn 0.0000 1.0000 0.0000
vn 0.0000 0.0000 1.0000
vn 0.0000 -1.0000 0.0000
vn 0.0000 0.0000 -1.0000
vn 1.0000 0.0000 0.0000
vn -1.0000 0.0000 0.0000
vn 0.0000 0.1812 -0.9834
vn 0.0000 0.1812 0.9834
vn -0.9834 0.1812 0.0000
vn 0.9834 0.1812 0.0000
vn 0.4078 0.4104 0.8157
vn -0.7735 0.6338 0.0000
vn 0.0000 0.7071 0.7071
vn 0.0000 0.7071 -0.7071
vn 0.7071 0.7071 0.0000
vn -0.7071 0.7071 0.0000
vn -0.7049 -0.7093 0.0000
vn -0.7090 0.7052 0.0000
usemtl Material
s off
f 115/1/1 75/2/1 29/3/1 116/4/1
f 28/5/2 116/4/2 29/6/2 34/7/2
f 6/8/3 8/9/3 26/10/3 25/11/3
f 6/8/3 2/12/3 4/13/3 8/9/3
f 15/14/4 13/15/4 87/16/4 88/17/4
f 51/18/5 2/12/5 21/19/5 60/20/5
f 37/21/5 9/22/5 11/23/5 38/24/5
f 10/25/3 2/12/3 14/26/3 16/27/3
f 4/13/3 2/12/3 10/25/3 12/28/3
f 19/29/5 11/23/5 86/30/5 89/31/5
f 39/32/4 13/15/4 15/14/4 40/33/4
f 36/34/6 115/1/6 13/15/6 39/32/6
f 13/15/6 115/1/6 117/35/6 87/16/6
f 54/36/5 10/25/5 16/27/5 57/37/5
f 58/38/2 18/39/2 20/40/2 59/41/2
f 52/42/6 4/13/6 18/39/6 58/38/6
f 38/24/5 11/23/5 19/29/5 42/43/5
f 4/13/3 12/28/3 20/40/3 18/39/3
f 44/44/4 76/45/4 23/46/4 43/47/4
f 5/48/6 75/49/6 76/45/6 44/44/6
f 2/12/3 6/8/3 22/50/3 21/19/3
f 115/1/5 23/46/5 74/51/5 72/52/5
f 45/53/6 31/54/6 32/55/6 46/56/6
f 55/57/5 38/24/5 42/43/5 59/41/5
f 53/58/4 6/59/4 25/60/4 62/61/4
f 34/7/2 29/6/2 31/62/2 45/63/2
f 61/64/4 44/44/4 43/47/4 60/20/4
f 75/49/4 5/48/4 46/56/4 32/55/4
f 45/53/1 46/56/1 49/65/1 50/66/1
f 7/67/2 27/68/2 31/69/2 29/3/2
f 63/70/2 34/7/2 45/63/2 64/71/2
f 27/68/4 7/67/4 33/72/4 35/73/4
f 116/4/6 28/5/6 41/74/6 17/75/6
f 53/58/6 5/48/6 44/44/6 61/64/6
f 17/75/2 41/74/2 42/43/2 19/29/2
f 9/22/5 37/21/5 40/33/5 15/14/5
f 51/18/6 36/34/6 39/32/6 56/76/6
f 56/76/4 39/32/4 40/33/4 57/37/4
f 54/36/5 37/21/5 38/24/5 55/57/5
f 115/1/5 36/34/5 43/47/5 23/46/5
f 52/42/2 28/5/2 34/7/2 63/70/2
f 66/77/6 50/66/6 49/65/6 65/78/6
f 64/71/2 45/63/2 50/79/2 66/80/2
f 62/61/4 25/60/4 47/81/4 65/78/4
f 25/11/3 26/10/3 48/82/3 47/83/3
f 29/84/1 75/85/1 32/86/1 31/87/1
f 46/56/4 62/61/4 65/78/4 49/65/4
f 26/88/2 64/71/2 66/80/2 48/89/2
f 66/77/1 65/78/1 69/90/1 70/91/1
f 4/13/2 52/42/2 63/70/2 8/92/2
f 10/25/5 54/36/5 55/57/5 12/28/5
f 14/26/4 56/76/4 57/37/4 16/27/4
f 2/12/6 51/18/6 56/76/6 14/26/6
f 6/59/6 53/58/6 61/64/6 22/93/6
f 8/92/2 63/70/2 64/71/2 26/88/2
f 22/93/4 61/64/4 60/20/4 21/19/4
f 5/48/4 53/58/4 62/61/4 46/56/4
f 12/28/5 55/57/5 59/41/5 20/40/5
f 28/5/6 52/42/6 58/38/6 41/74/6
f 41/74/2 58/38/2 59/41/2 42/43/2
f 37/21/5 54/36/5 57/37/5 40/33/5
f 36/34/5 51/18/5 60/20/5 43/47/5
f 68/94/6 70/91/6 69/90/6 67/95/6
f 47/83/3 48/82/3 68/96/3 67/97/3
f 65/78/4 47/81/4 67/95/4 69/90/4
f 48/89/2 66/80/2 70/98/2 68/99/2
f 77/100/1 72/52/1 74/51/1 78/101/1
f 23/46/4 76/45/4 78/102/4 74/51/4
f 30/103/4 71/104/4 81/105/4 79/106/4
f 75/2/2 115/1/2 72/52/2 77/100/2
f 30/103/6 24/107/6 76/45/6 75/49/6
f 73/108/6 71/104/6 77/109/6 78/102/6
f 24/107/6 73/108/6 78/102/6 76/45/6
f 71/104/6 30/103/6 75/49/6 77/109/6
f 80/110/6 79/106/6 81/105/6 82/111/6
f 71/104/3 73/108/3 82/111/3 81/105/3
f 73/108/2 24/107/2 80/110/2 82/111/2
f 24/107/1 30/103/1 79/106/1 80/110/1
f 86/30/2 118/112/2 92/113/2 91/114/2
f 117/35/1 118/112/1 86/30/1 85/115/1
f 88/17/2 87/16/2 95/116/2 96/117/2
f 17/75/2 19/29/2 89/31/2 90/118/2
f 3/119/4 84/120/4 122/121/4 120/122/4
f 9/22/5 15/14/5 88/17/5 85/115/5
f 11/23/5 9/22/5 85/115/5 86/30/5
f 116/4/6 17/75/6 90/118/6 118/112/6
f 104/123/5 103/124/5 128/125/5 100/126/5
f 108/127/6 107/128/6 126/129/6 124/130/6
f 89/31/2 86/30/2 91/114/2 97/131/2
f 90/118/2 89/31/2 97/131/2 98/132/2
f 87/16/2 117/35/2 93/133/2 95/116/2
f 117/35/2 85/115/2 94/134/2 93/133/2
f 118/112/2 90/118/2 98/132/2 92/113/2
f 85/115/2 88/17/2 96/117/2 94/134/2
f 102/135/4 185/136/4 188/137/4 171/138/4
f 103/124/4 105/139/4 127/140/4 128/125/4
f 109/141/4 108/127/4 124/130/4 123/142/4
f 110/143/5 109/141/5 123/142/5 125/144/5
f 107/128/2 110/143/2 125/144/2 126/129/2
f 105/139/6 106/145/6 99/146/6 127/140/6
f 140/147/4 184/148/4 159/149/4 160/150/4
f 93/133/2 94/134/2 104/123/2 106/145/2
f 95/116/6 93/133/6 106/145/6 105/139/6
f 96/117/4 95/116/4 105/139/4 103/124/4
f 94/134/5 96/117/5 103/124/5 104/123/5
f 98/132/2 97/131/2 110/143/2 107/128/2
f 97/131/5 91/114/5 109/141/5 110/143/5
f 91/114/4 92/113/4 108/127/4 109/141/4
f 92/113/6 98/132/6 107/128/6 108/127/6
f 113/151/2 114/152/2 132/153/2 131/154/2
f 104/123/5 100/126/5 132/153/5 114/152/5
f 99/146/6 106/145/6 113/151/6 131/154/6
f 106/145/3 104/123/3 114/152/3 113/151/3
f 3/119/6 1/155/6 115/1/6 116/4/6
f 1/155/6 83/156/6 117/35/6 115/1/6
f 83/156/6 84/120/6 118/112/6 117/35/6
f 84/120/6 3/119/6 116/4/6 118/112/6
f 119/157/6 120/122/6 122/121/6 121/158/6
f 83/156/2 1/155/2 119/157/2 121/158/2
f 84/120/3 83/156/3 121/158/3 122/121/3
f 1/155/1 3/119/1 120/122/1 119/157/1
f 134/159/1 133/160/1 123/142/1 124/130/1
f 135/161/1 136/162/1 126/129/1 125/144/1
f 136/162/1 134/159/1 124/130/1 126/129/1
f 133/160/1 135/161/1 125/144/1 123/142/1
f 137/163/1 138/164/1 128/125/1 127/140/1
f 129/165/1 137/163/1 127/140/1 99/146/1
f 138/164/1 130/166/1 100/126/1 128/125/1
f 142/167/1 141/168/1 131/154/1 132/153/1
f 141/168/1 129/165/1 99/146/1 131/154/1
f 130/166/1 142/167/1 132/153/1 100/126/1
f 136/162/2 135/161/2 153/169/2 154/170/2
f 135/161/5 133/160/5 151/171/5 153/169/5
f 133/160/4 134/159/4 152/172/4 151/171/4
f 134/159/6 136/162/6 154/170/6 152/172/6
f 185/136/2 102/135/2 138/164/2 137/163/2
f 184/148/2 185/136/2 137/163/2 129/165/2
f 102/135/2 140/147/2 130/166/2 138/164/2
f 112/173/2 111/174/2 141/168/2 142/167/2
f 111/174/2 184/148/2 129/165/2 141/168/2
f 140/147/2 112/173/2 142/167/2 130/166/2
f 147/175/1 148/176/1 150/177/1 149/178/1
f 156/179/1 155/180/1 143/181/1 144/182/1
f 157/183/1 158/184/1 146/185/1 145/186/1
f 158/184/1 156/179/1 144/182/1 146/185/1
f 155/180/1 157/183/1 145/186/1 143/181/1
f 144/182/7 143/181/7 151/171/7 152/172/7
f 145/186/8 146/185/8 154/170/8 153/169/8
f 146/185/9 144/182/9 152/172/9 154/170/9
f 143/181/10 145/186/10 153/169/10 151/171/10
f 148/176/2 147/175/2 155/180/2 156/179/2
f 149/178/4 150/177/4 158/184/4 157/183/4
f 150/177/5 148/176/5 156/179/5 158/184/5
f 147/175/6 149/178/6 157/183/6 155/180/6
f 140/147/5 102/135/5 171/138/5 168/187/5
f 172/188/3 169/189/3 170/190/3 175/191/3
f 162/192/5 160/150/5 179/193/5 182/194/5
f 112/173/5 140/147/5 160/150/5 162/192/5
f 111/174/2 112/173/2 162/192/2 161/195/2
f 184/148/6 111/174/6 161/195/6 159/149/6
f 139/196/6 101/197/6 185/136/6 184/148/6
f 169/198/11 187/199/11 190/200/11 167/201/11
f 101/197/12 139/196/12 165/202/12 166/203/12
f 187/204/13 168/187/13 169/189/13 172/188/13
f 175/191/14 170/190/14 171/138/14 188/137/14
f 168/187/15 171/138/15 170/190/15 169/189/15
f 184/148/2 140/147/2 168/187/2 187/204/2
f 159/149/6 161/195/6 181/205/6 176/206/6
f 178/207/1 177/208/1 180/209/1 183/210/1
f 161/195/2 162/192/2 182/194/2 181/205/2
f 177/208/14 178/207/14 179/193/14 176/206/14
f 181/205/13 182/194/13 183/210/13 180/209/13
f 176/206/16 181/205/16 180/209/16 177/208/16
f 182/194/15 179/193/15 178/207/15 183/210/15
f 160/150/4 159/149/4 176/206/4 179/193/4
f 163/211/6 164/212/6 185/213/6 184/214/6
f 173/215/6 163/211/6 184/214/6 187/199/6
f 164/212/6 174/216/6 188/217/6 185/213/6
f 174/216/6 173/215/6 187/199/6 188/217/6
f 164/212/1 163/211/1 186/218/1 189/219/1
f 187/199/17 188/217/17 191/220/17 190/200/17
f 188/217/18 187/199/18 169/198/18 175/191/18 170/190/18
