# Blender v2.83.3 OBJ File: 'torch.blend'
# www.blender.org
mtllib torch.mtl
o Cube
v 0.212359 -1.000000 -0.241884
v 0.244904 1.000000 0.306124
v 0.212359 -1.000000 0.241884
v -0.294616 1.000000 -0.263521
v -0.212359 -1.000000 -0.241884
v -0.294616 1.000000 0.306124
v -0.212359 -1.000000 0.241884
v 0.400424 1.000000 0.440807
v -0.450135 1.000000 0.440807
v -0.450135 1.000000 -0.398204
v 0.134702 0.647837 0.164227
v -0.134702 0.647837 0.164227
v 0.134702 0.647837 -0.164227
v -0.134702 0.647837 -0.164227
v -0.450135 1.000000 -0.398204
v 0.400424 1.000000 -0.398204
v -0.294616 1.000000 -0.263521
v 0.244904 1.000000 -0.263521
v 0.244904 1.000000 -0.263521
v 0.244904 1.000000 0.306124
v 0.400424 1.000000 0.440807
v 0.400424 1.000000 -0.398204
vt 0.375000 0.750000
vt 0.625000 0.750000
vt 0.625000 1.000000
vt 0.375000 1.000000
vt 0.375000 0.000000
vt 0.625000 0.000000
vt 0.625000 0.250000
vt 0.375000 0.250000
vt 0.125000 0.500000
vt 0.375000 0.500000
vt 0.125000 0.750000
vt 0.670711 0.709869
vt 0.829289 0.709869
vt 0.875000 0.750000
vt 0.670711 0.540131
vt 0.670711 0.709869
vt 0.625000 0.750000
vt 0.625000 0.500000
vt 0.829289 0.540131
vt 0.875000 0.500000
vt 0.670711 0.540131
vt 0.829289 0.540131
vt 0.829289 0.709869
vt 0.670711 0.709869
vt 0.829289 0.540131
vt 0.670711 0.540131
vt 0.625000 0.500000
vt 0.875000 0.500000
vt 0.000000 0.000000
vt 0.000000 0.000000
vt 0.000000 0.000000
vt 0.000000 0.000000
vn 0.0000 -0.0990 0.9951
vn -0.9930 -0.1181 0.0000
vn 0.0000 -1.0000 0.0000
vn 0.0000 1.0000 0.0000
vn 0.9105 0.4135 0.0000
vn 0.0000 0.3737 -0.9275
vn 0.9956 -0.0936 0.0000
vn 0.0000 -0.0779 -0.9970
usemtl Material
s off
f 3/1/1 8/2/1 9/3/1 7/4/1
f 7/5/2 9/6/2 10/7/2 5/8/2
f 5/9/3 1/10/3 3/1/3 7/11/3
f 2/12/4 6/13/4 9/14/4 8/2/4
f 19/15/4 20/16/4 21/17/4 22/18/4
f 6/13/4 4/19/4 10/20/4 9/14/4
f 13/21/4 14/22/4 12/23/4 11/24/4
f 4/19/5 6/13/5 12/23/5 14/22/5
f 6/13/6 2/12/6 11/24/6 12/23/6
f 17/25/4 18/26/4 16/27/4 15/28/4
f 22/18/7 21/17/7 3/1/7 1/10/7
f 22/29/8 1/30/8 5/31/8 15/32/8
